<svg width="109" height="31" viewBox="0 0 109 31" fill="none" xmlns="http://www.w3.org/2000/svg">
<g clip-path="url(#clip0_104_1083)">
<rect x="78.8104" y="0.0888672" width="29.1892" height="29.1892" rx="14.5946" transform="rotate(-0.173721 78.8104 0.0888672)" fill="#FFE75C"/>
<path d="M101.305 29.6928C101.41 30.1143 101.418 30.5543 101.328 30.9793C101.238 31.4044 101.052 31.8033 100.786 32.1462C100.519 32.4889 100.177 32.7666 99.7871 32.9579C99.397 33.1492 98.9687 33.2493 98.5341 33.2507L92.5977 33.2687L89.821 34.8338L89.8207 34.7508C88.5546 34.7546 87.827 34.3417 88.3734 29.6905C88.1203 28.3836 86.9424 23.2395 86.2873 19.4015C85.6954 15.8953 86.9992 14.6045 90.6047 12.5594C92.1268 7.98824 96.1127 8.24599 96.889 10.9835C97.6653 13.7211 100.233 25.3579 101.305 29.6928Z" fill="#66BCFF"/>
<path d="M101.305 29.6926C100.758 27.4525 99.7909 23.3041 98.8866 19.4253L94.2361 19.0865L90.653 21.6297L88.5858 24.4174L87.5316 25.8528C87.9106 27.6368 88.2261 29.0888 88.3526 29.7111C87.8062 34.3623 88.534 34.7753 89.8001 34.7714L93.4696 33.2035L101.978 32.5758C101.768 31.6424 101.536 30.6675 101.305 29.6926Z" fill="#EB459F"/>
<path d="M91.7849 27.3846C92.0419 25.8354 91.9022 24.5215 91.4723 24.4501C91.0426 24.3788 90.4858 25.5769 90.2286 27.1263C89.9713 28.6756 90.1113 29.9893 90.541 30.0606C90.9706 30.132 91.5276 28.9338 91.7849 27.3846Z" fill="black"/>
<path d="M89.0604 23.5445C89.2668 23.1702 89.4942 22.7959 89.7215 22.4631C92.0568 19.0726 94.254 18.1527 96.3712 18.1463L99.0073 18.1383C99.0467 18.1392 99.0852 18.1494 99.1199 18.168C99.1544 18.1866 99.1842 18.2133 99.2065 18.2456C99.2288 18.2779 99.2432 18.315 99.2485 18.354C99.2538 18.393 99.2498 18.4327 99.2368 18.4697L98.8866 19.4256C94.8391 19.4378 93.4065 19.3176 90.0546 22.8565L88.5858 24.4177L89.0604 23.5445Z" fill="#D11583"/>
<path d="M90.055 22.981C88.665 23.2343 87.5671 23.9641 86.9483 25.2529C86.7726 25.6104 86.5182 25.9234 86.2039 26.1684L82.4759 28.8989C82.0569 29.1982 81.7656 29.6439 81.6594 30.1478C81.5534 30.6517 81.6403 31.177 81.903 31.6198C82.0862 31.9306 82.3479 32.1876 82.6616 32.3651C82.9756 32.5427 83.3306 32.6346 83.6911 32.6314L85.2479 32.6267C88.4804 30.8111 89.9712 29.5819 90.7371 28.8738C91.5029 28.1658 92.3501 26.897 92.2004 25.4445C92.0507 23.992 91.6316 22.6856 90.055 22.981Z" fill="white"/>
<path d="M91.1848 12.2459C90.6841 11.4172 90.0165 10.3191 89.7659 9.80094C89.5152 9.28278 88.9137 9.40914 89.7717 11.7313C87.6937 10.9488 87.2587 11.2408 87.1558 11.5317C87.0529 11.8226 87.51 11.9665 88.3832 12.462C89.2565 12.9575 90.1924 13.5566 90.1924 13.5566L91.1848 12.2459Z" fill="#66BCFF"/>
<path d="M93.3437 12.302C93.6952 11.865 93.8185 11.3873 93.6104 11.2218C93.4024 11.0564 93.1741 11.1401 92.864 11.5562C92.7302 11.7254 92.5852 11.8854 92.4296 12.0349C92.0777 12.3681 92.1615 12.6169 92.328 12.7617C92.4945 12.9065 92.9921 12.739 93.3437 12.302Z" fill="black"/>
<path d="M96.8684 11.0042C96.8684 11.0042 94.395 9.89085 93.3343 9.20909C92.2736 8.52733 91.7309 7.51189 92.2075 7.2406C92.6841 6.96932 93.5995 7.61 94.2455 8.43832C94.2203 6.96466 94.4684 6.65258 94.8627 6.63062C95.257 6.60867 95.3001 7.18971 95.3234 8.01991C95.3466 8.85012 95.4932 9.18178 96.1176 9.74033C96.4914 10.0748 96.7534 10.5159 96.8684 11.0042Z" fill="#3442D9"/>
<path d="M87.8189 17.9228C87.2377 17.9245 86.738 17.4279 87.192 16.5547C87.646 15.6815 89.1377 14.8052 89.8632 14.4709C90.5886 14.1366 90.922 14.4677 90.9435 14.7167C90.965 14.9657 90.8621 15.3397 90.3452 16.0055C89.8283 16.6713 88.8775 17.9195 87.8189 17.9228Z" fill="white"/>
<path d="M88.2751 17.8592L87.9226 17.9225L87.4193 16.222L87.7089 15.9098L88.2751 17.8592Z" fill="#8CD9FF"/>
<path d="M89.5593 16.9419L89.2698 17.2334L88.682 15.1387L88.9927 14.9302L89.5593 16.9419Z" fill="#8CD9FF"/>
<path d="M90.7174 15.4857L90.4485 15.8602L90.029 14.4085L90.3817 14.3451L90.7174 15.4857Z" fill="#8CD9FF"/>
<path d="M90.2566 14.1587C90.6414 14.341 91.037 14.4994 91.4414 14.6325" stroke="black" stroke-linecap="round" stroke-linejoin="round"/>
<path d="M99.5383 22.1634C99.1401 21.8495 98.6528 21.6694 98.1462 21.6487C97.0669 21.652 96.4681 22.7124 96.2637 23.7301C96.2307 23.8934 96.143 24.0402 96.0148 24.1464C95.8866 24.2527 95.726 24.3115 95.5597 24.3134L95.4144 24.3139C95.3207 24.2969 95.2314 24.2613 95.1519 24.2088C95.0723 24.1565 95.0042 24.0887 94.9516 24.0093C94.8991 23.93 94.8629 23.8408 94.8458 23.7473C94.8285 23.6535 94.8305 23.5574 94.8514 23.4645C95.2398 21.4915 96.5229 20.2214 98.1419 20.2165C98.4097 20.219 98.6688 20.3125 98.8769 20.4816C99.0847 20.6506 99.2291 20.8853 99.2863 21.1471L99.5383 22.1634Z" fill="white"/>
<path d="M101.305 29.6927C101.351 29.8781 101.359 30.0711 101.329 30.2597C101.298 30.4484 101.23 30.629 101.127 30.7904C101.025 30.9518 100.891 31.0906 100.733 31.1986C100.575 31.3068 100.397 31.3817 100.21 31.4188L99.6913 31.4619C98.5082 31.4655 97.2812 30.7635 96.3226 29.5417C96.2653 29.4655 96.2233 29.3789 96.1994 29.2866C96.1755 29.1941 96.17 29.098 96.1832 29.0035C96.1964 28.909 96.2281 28.818 96.2764 28.7359C96.3247 28.6535 96.3889 28.5817 96.4651 28.5242C96.54 28.464 96.6267 28.4197 96.7194 28.3941C96.8121 28.3687 96.9092 28.3624 97.0045 28.3756C97.0998 28.389 97.1912 28.4215 97.2736 28.4717C97.3557 28.5217 97.4269 28.5879 97.4824 28.6664C98.1492 29.5154 98.9605 30.0319 99.6869 30.0297C100.413 30.0275 100.848 29.611 101.158 29.0704C101.2 29.2986 101.263 29.506 101.305 29.6927Z" fill="#2331B5"/>
<path d="M99.896 23.7603C99.7495 23.7616 99.607 23.8083 99.4881 23.8942C99.3695 23.9801 99.2804 24.1009 99.2332 24.2397L98.3686 26.5879C98.2931 26.8083 98.2955 27.0481 98.3754 27.267C98.4556 27.486 98.6083 27.6707 98.8081 27.7904C98.8986 27.8456 99.0004 27.8799 99.1057 27.8904C99.2111 27.9011 99.3176 27.8877 99.4173 27.8515C99.5168 27.8153 99.6069 27.7571 99.681 27.6813C99.7551 27.6055 99.8111 27.514 99.8448 27.4137L100.401 25.8967C100.253 25.2122 100.085 24.507 99.896 23.7603Z" fill="#5865F2"/>
<path d="M98.8082 27.7908C98.6083 27.671 98.4556 27.4864 98.3754 27.2674C98.2955 27.0485 98.2931 26.8087 98.3686 26.5883L98.6157 25.944C98.6571 25.8316 98.7224 25.7295 98.8068 25.6446C98.8915 25.5598 98.9934 25.4943 99.1056 25.4525C99.2179 25.4108 99.3379 25.3939 99.4574 25.4029C99.5768 25.4118 99.693 25.4466 99.7975 25.5046C99.9687 25.6039 100.1 25.7594 100.169 25.9449C100.237 26.1303 100.239 26.3337 100.174 26.5205L99.8449 27.4141C99.8111 27.5144 99.7551 27.6059 99.6811 27.6817C99.607 27.7575 99.5169 27.8157 99.4173 27.8519C99.3176 27.8881 99.2112 27.9015 99.1057 27.8908C99.0004 27.8803 98.8986 27.8462 98.8082 27.7908Z" fill="#FFE75C"/>
</g>
<g clip-path="url(#clip1_104_1083)">
<rect x="63.2429" y="0.135742" width="29.1892" height="29.1892" rx="14.5946" transform="rotate(-0.173721 63.2429 0.135742)" fill="#3442D9"/>
<path d="M69.7533 11.587C68.8937 8.76671 68.433 7.41891 69.9665 6.58399C71.4999 5.74906 76.1719 6.29533 78.3529 6.80764C80.5339 7.31995 80.8469 7.85868 79.4212 10.001L69.7533 11.587Z" fill="#FFF4B3"/>
<path d="M68.834 36.9752C68.4765 28.5905 68.6629 21.6156 68.9215 17.8994C67.528 16.9903 66.8824 16.2865 66.6114 15.893C66.5551 15.8172 66.5262 15.7245 66.5298 15.63C66.5333 15.5358 66.5687 15.4454 66.6305 15.374C68.8224 12.6067 70.7039 10.1932 72.6724 9.06633C74.6409 7.93949 77.3384 7.64072 81.648 11.9036C81.6892 11.9582 81.7098 12.0256 81.7063 12.0939C81.7027 12.1624 81.6751 12.2273 81.6284 12.2772C81.2881 12.617 80.9288 12.9369 80.5519 13.2353C81.4284 14.7894 82.7017 17.1519 82.7017 17.1519L83.6981 17.1488C84.3365 17.1469 84.9498 17.3987 85.4027 17.849C85.8557 18.2991 86.1112 18.9106 86.1131 19.5493C86.1397 21.4796 85.6901 23.8057 84.8067 26.7974C88.8018 30.0234 87.847 36.8968 87.847 36.8968L68.834 36.9752Z" fill="#29CC7A"/>
<path d="M84.8067 26.7975C84.9299 26.3613 85.0532 25.9665 85.1558 25.5511L82.0268 27.3041C82.0268 27.3041 77.0558 23.9773 68.7261 21.9269C68.5925 25.7881 68.5876 31.0188 68.834 36.9753L87.8471 36.9177C87.8471 36.9177 88.8018 30.0235 84.8067 26.7975Z" fill="#8CD9FF"/>
<path d="M85.5977 27.5633C85.3549 27.2874 85.0903 27.0314 84.8067 26.7977C84.9299 26.3615 85.0532 25.9667 85.1557 25.5513L82.0268 27.3043C82.0268 27.3043 77.0558 23.9775 68.7261 21.9271C68.7068 22.4046 68.6876 22.9236 68.6892 23.4425C75.0695 26.0593 78.508 30.5738 78.9217 36.9449L83.6335 36.9306C84.4527 33.2749 85.1072 30.0764 85.5977 27.5633Z" fill="#BAE8FF"/>
<path d="M71.2302 19.4908L71.3133 19.4906C71.3546 19.4489 71.3961 19.428 71.4167 19.3657L73.2048 13.5276C73.2168 13.5031 73.2235 13.4763 73.2241 13.4489C73.2246 13.4217 73.2193 13.3945 73.2083 13.3696C73.1974 13.3445 73.1809 13.3222 73.1605 13.3042C73.1399 13.2862 73.1158 13.273 73.0894 13.2654C73.0633 13.2578 73.0356 13.256 73.0087 13.26C72.9817 13.2642 72.956 13.2743 72.9332 13.2895C72.9106 13.3047 72.8916 13.3247 72.8773 13.3482C72.8633 13.3715 72.8544 13.3977 72.8516 13.4249L71.1252 19.076C70.3709 18.757 69.6472 18.37 68.963 17.9202L68.9215 17.9203C68.9218 18.0448 68.9015 18.1902 68.9019 18.3147C69.6204 18.774 70.3788 19.1677 71.168 19.491L71.2302 19.4908Z" fill="black"/>
<path d="M78.9233 10.0854L71.4941 10.6476C79.8015 12.1999 80.1551 12.4272 78.9233 10.0854Z" fill="black"/>
<path d="M77.0826 15.49C77.3691 15.3733 77.4191 14.831 77.1941 14.2789C76.9691 13.7271 76.5545 13.3742 76.2678 13.4909C75.9811 13.6078 75.9313 14.1499 76.1563 14.702C76.3811 15.2541 76.7959 15.6069 77.0826 15.49Z" fill="black"/>
<path d="M79.2258 16.6311C79.5938 15.9309 79.5467 15.1817 79.1205 14.9578C78.6943 14.7337 78.0506 15.1199 77.6824 15.8199C77.3144 16.5201 77.3617 17.2692 77.7877 17.4934C78.2139 17.7173 78.8579 17.3313 79.2258 16.6311Z" stroke="white" stroke-miterlimit="10"/>
<path d="M82.2823 16.6262C82.6503 15.9262 82.6032 15.177 82.177 14.9529C81.7508 14.7289 81.1071 15.1149 80.7391 15.8151C80.3711 16.5153 80.4182 17.2645 80.8444 17.4884C81.2706 17.7123 81.9144 17.3264 82.2823 16.6262Z" stroke="white" stroke-miterlimit="10"/>
<path d="M80.1792 15.3801C80.3703 15.3023 80.3499 14.809 80.1335 14.2781C79.9173 13.7473 79.587 13.3801 79.3958 13.4581C79.2049 13.5359 79.2253 14.0292 79.4415 14.5602C79.6579 15.0909 79.9883 15.4581 80.1792 15.3801Z" fill="black"/>
<path d="M82.1732 20.807C80.5706 20.817 79.0138 20.2717 77.768 19.2636C76.4779 18.2089 76.9964 18.0828 77.8059 18.0596C78.6153 18.0363 82.4973 18.1699 83.6186 18.3325C84.74 18.4952 84.9543 20.7155 82.1732 20.807Z" fill="#912869"/>
<path d="M82.1732 20.807C80.5706 20.817 79.0138 20.2717 77.768 19.2636C76.4779 18.2089 76.9964 18.0828 77.8059 18.0596C78.6153 18.0363 82.4973 18.1699 83.6186 18.3325C84.74 18.4952 84.9543 20.7155 82.1732 20.807Z" fill="#611B46"/>
<path d="M82.0972 23.1319L82.0118 22.3641C82.5981 22.3156 83.169 22.1516 83.6917 21.8816" stroke="black" stroke-linecap="round" stroke-linejoin="round"/>
<path d="M82.9408 20.7007C81.8167 19.6248 80.299 18.8199 77.4974 19.0152C79.9119 21.2288 82.4223 20.8476 82.9408 20.7007Z" fill="#EB459F"/>
<path d="M79.3561 15.896L80.6222 15.8922" stroke="white" stroke-miterlimit="10"/>
<path d="M77.4472 16.151L72.0853 13.9878C71.9729 13.9446 71.8516 13.9294 71.7321 13.943C71.6124 13.9569 71.4979 13.9994 71.3981 14.0669C71.2985 14.1345 71.2165 14.2252 71.1596 14.3312C71.1024 14.4373 71.0718 14.5555 71.0703 14.6759C71.0683 14.8176 71.109 14.9566 71.1872 15.0749C71.2651 15.193 71.3771 15.285 71.5082 15.3388L71.8616 15.5037" stroke="white" stroke-miterlimit="10" stroke-linecap="round"/>
<path d="M76.3181 13.4351C76.7393 13.4446 77.1597 13.3873 77.563 13.2653" stroke="black" stroke-miterlimit="10" stroke-linecap="round"/>
<path d="M79.4317 13.4258C79.6972 13.4319 79.9604 13.3742 80.1991 13.2574" stroke="black" stroke-miterlimit="10" stroke-linecap="round"/>
<path d="M70.4569 10.8584C77.8667 10.7321 80.3757 9.89425 82.4906 9.11984C84.6054 8.34542 84.3961 7.74411 82.7772 7.81129C81.1584 7.87847 75.6228 10.0124 70.4569 10.8584Z" fill="#FFF4B3"/>
<path d="M70.4568 10.8581L72.9885 10.6429L79.0666 9.42056L77.5468 7.93067L70.3027 7.95264L70.4568 10.8581Z" fill="#FFF4B3"/>
<path d="M82.7473 18.4805L81.2941 18.4019C81.4628 19.2731 81.8793 19.7285 82.2317 19.5822C82.5841 19.4358 82.7063 18.6674 82.7473 18.4805Z" fill="white"/>
<path d="M78.2633 18.3071C78.4531 19.3029 78.8283 19.8207 79.1807 19.6535C79.5331 19.4864 79.6136 18.6559 79.6748 18.3236L78.2633 18.3071Z" fill="white"/>
<path d="M79.9147 8.44271C76.7181 9.30952 73.4775 10.0053 70.2068 10.5271" stroke="#FFC619" stroke-width="2" stroke-miterlimit="10" stroke-linecap="round"/>
</g>
<g clip-path="url(#clip2_104_1083)">
<rect x="41.8406" y="1.17383" width="29.1892" height="29.1892" rx="14.5946" transform="rotate(-0.173721 41.8406 1.17383)" fill="#7196FF"/>
<path d="M52.8166 26.0908L52.1773 26.7285L56.8476 31.3314L57.4869 30.6935L52.8166 26.0908Z" fill="#2E3338"/>
<path d="M55.7278 26.0889L55.0885 26.7266L59.7587 31.3293L60.3981 30.6916L55.7278 26.0889Z" fill="#2E3338"/>
<path d="M60.971 25.2745C62.1731 24.0696 62.9145 22.4873 63.0677 20.7995C63.221 19.1115 62.7763 17.4235 61.8105 16.0254L58.7807 11.6361L55.2122 11.6469L55.2292 17.2573C55.2307 17.7447 55.0368 18.2127 54.6904 18.5584C54.3438 18.9039 53.873 19.099 53.3814 19.1004L47.6443 19.1178L47.6481 20.3886C47.6538 22.2569 48.4064 24.0465 49.7409 25.3654C51.0754 26.6843 52.883 27.4246 54.7672 27.424L55.812 27.4209C57.7479 27.3989 59.5989 26.6289 60.971 25.2745Z" fill="#FFD836"/>
<path d="M58.7744 9.58342C59.7208 9.58055 60.6296 9.95058 61.3008 10.6121C61.972 11.2736 62.3507 12.1725 62.3536 13.1109L62.3564 14.0297L55.2193 14.0513L55.2165 13.113C55.2189 12.1779 55.5945 11.2818 56.2612 10.6205C56.9278 9.9591 57.8314 9.58626 58.7744 9.58342Z" fill="#FFD836"/>
<path d="M63.3973 12.7166C63.5696 12.8846 63.7058 13.0853 63.7979 13.3067C63.8901 13.5281 63.9363 13.7657 63.9335 14.0052L60.5227 14.0156C60.396 14.0135 60.2725 13.9746 60.1678 13.9039C60.0629 13.8332 59.9812 13.7336 59.9327 13.6175C59.8842 13.5013 59.8709 13.3736 59.8946 13.2501C59.9183 13.1266 59.9778 13.0126 60.0659 12.9222L60.754 12.2359L60.751 11.2585C60.7505 11.1322 60.7993 11.0106 60.8872 10.9193C60.9752 10.8279 61.0954 10.7738 61.2226 10.7684C61.3526 10.775 61.4771 10.8225 61.5779 10.9041L63.3973 12.7166Z" fill="#FF9A15"/>
<path d="M58.7744 9.5833L57.7294 9.58647C56.4433 9.58877 55.2085 9.08653 54.2947 8.18938L53.7803 7.62402L53.7813 7.9759C53.7848 9.11651 54.2451 10.209 55.061 11.0131C55.8768 11.8171 56.9814 12.2669 58.1318 12.2634L58.7627 12.2615L58.7744 9.5833Z" fill="#FFD836"/>
<path d="M53.7123 11.2017L56.571 11.193L56.5796 14.0275L53.7123 11.2017Z" fill="#FFD836"/>
<path d="M49.3084 21.8494C49.845 22.977 50.799 23.8562 51.9724 24.3044C53.1458 24.7526 54.4482 24.7355 55.6091 24.2563C56.7699 23.7772 57.7002 22.873 58.2063 21.7316C58.7124 20.5902 58.7556 19.2995 58.3269 18.1274L49.3084 21.8494Z" fill="#FF9A15"/>
<path d="M44.4801 15.9995L46.715 18.2995C47.0083 18.5849 47.2418 18.9251 47.402 19.3003C47.5622 19.6757 47.6459 20.0786 47.6482 20.4861L49.2452 20.4812L49.2418 19.3671C49.2381 18.7444 49.0262 18.1406 48.6395 17.6501C48.2527 17.1595 47.7128 16.8101 47.1043 16.6563L44.4801 15.9995Z" fill="#FFD836"/>
<path d="M48.6911 19.8185L48.5142 19.9949C48.4416 20.0644 48.35 20.111 48.2508 20.1291C48.1515 20.1472 48.0491 20.1359 47.9565 20.0965C47.8636 20.0571 47.7847 19.9914 47.7295 19.9078C47.6742 19.8241 47.645 19.7261 47.6456 19.6261L47.63 14.4849L48.678 15.5178C49.2481 16.09 49.5689 16.8611 49.5714 17.6654C49.5738 18.4697 49.2577 19.2429 48.6911 19.8185Z" fill="#FFD836"/>
<path d="M58.9993 12.2606C59.2498 12.2599 59.4522 12.058 59.4514 11.8097C59.4507 11.5613 59.2471 11.3607 58.9966 11.3614C58.7461 11.3622 58.5437 11.5641 58.5445 11.8124C58.5452 12.0607 58.7488 12.2614 58.9993 12.2606Z" fill="#202225"/>
</g>
<g clip-path="url(#clip3_104_1083)">
<rect x="20.9232" y="1.72363" width="29.1892" height="29.1892" rx="14.5946" transform="rotate(-0.173721 20.9232 1.72363)" fill="#FF78B9"/>
<path d="M44.7227 35.9596C45.7083 33.8768 43.0382 30.5468 38.7587 28.5214C34.4793 26.4961 30.211 26.5426 29.2254 28.6255C28.2397 30.7081 30.9098 34.0383 35.1894 36.0636C39.4687 38.0888 43.737 38.0422 44.7227 35.9596Z" fill="black"/>
<path d="M45.2418 24.4418C43.9732 23.6569 43.911 23.6779 43.2015 22.4139C42.4919 21.1498 41.5975 20.5298 40.5592 20.3877L41.8744 29.7035C44.5751 30.4841 46.2315 29.1091 46.601 27.7588C46.9706 26.4085 46.5311 25.2267 45.2418 24.4418Z" fill="#3442D9"/>
<path d="M43.9793 25.6705C43.6218 24.1563 42.6824 22.3948 41.5783 21.0697C41.1826 20.591 40.9013 20.0283 40.7557 19.4245C40.61 18.8207 40.6037 18.1917 40.7374 17.5851L41.1878 15.5081C41.5045 14.0665 41.3287 12.5604 40.6889 11.2303C40.0489 9.90029 38.9816 8.82311 37.6576 8.17088C36.8978 7.79966 36.0715 7.58343 35.2271 7.53478C33.6383 7.42324 32.0685 7.93519 30.8509 8.96195C29.6333 9.98872 28.8638 11.4495 28.7054 13.0344C28.6718 13.3029 28.6587 13.5735 28.6664 13.844L28.6691 14.7365L28.7219 18.4726C28.772 20.151 28.4213 21.817 27.6988 23.3328C27.3988 23.9342 27.171 24.569 27.0195 25.2237L37.2023 35.9864C42.0361 35.1622 45.0524 30.4828 43.9793 25.6705Z" fill="#3442D9"/>
<path d="M37.2231 35.986C42.0362 35.1619 45.0525 30.4824 43.9793 25.6701C43.6428 24.2389 42.7868 22.581 41.7658 21.2971" stroke="black" stroke-miterlimit="10" stroke-linecap="round"/>
<path d="M40.7422 25.9917C41.6922 24.4113 42.0665 24.6177 43.7699 25.0692C45.1409 25.4179 46.7269 28.2153 44.6348 29.6331C42.5426 31.0509 38.2642 30.2129 40.7422 25.9917Z" fill="#3442D9"/>
<path d="M35.9962 21.3537C36.1871 21.2068 36.217 20.9259 36.0632 20.7259C35.9094 20.526 35.6301 20.4831 35.4394 20.6298C35.2487 20.7767 35.2186 21.0576 35.3724 21.2575C35.5262 21.4575 35.8055 21.5004 35.9962 21.3537Z" fill="black"/>
<path d="M38.6112 21.5079C38.8019 21.3612 38.832 21.0801 38.6782 20.8802C38.5244 20.6804 38.2451 20.6372 38.0541 20.7842C37.8634 20.9309 37.8333 21.212 37.9871 21.4118C38.1409 21.6117 38.4202 21.6548 38.6112 21.5079Z" fill="black"/>
<path d="M38.3406 21.1831C40.5671 23.003 39.6577 24.3134 41.451 27.0064" stroke="white" stroke-miterlimit="10" stroke-linecap="round"/>
<path d="M35.8414 25.2798C37.2085 24.3208 37.6228 24.0497 38.1418 24.0689L39.4913 24.1894L39.1551 29.6702L35.7299 29.5768L35.8414 25.2798Z" fill="#FFC619"/>
<path d="M42.4794 23.8691C42.5051 23.7966 42.5134 23.719 42.504 23.6426C42.4946 23.5663 42.4676 23.4931 42.4253 23.4288C42.3828 23.3646 42.3262 23.311 42.2596 23.2724C42.1929 23.2338 42.1183 23.2112 42.0415 23.2063L39.7572 22.8811C39.5915 22.8639 39.4248 22.9043 39.2853 22.9954C39.1457 23.0865 39.0417 23.2228 38.9907 23.3816L37.7183 28.1595C37.6928 28.2322 37.6843 28.3097 37.6937 28.386C37.703 28.4624 37.73 28.5356 37.7724 28.5998C37.8149 28.664 37.8715 28.7176 37.9383 28.7562C38.0048 28.7948 38.0794 28.8174 38.1562 28.8224L40.4404 29.1476C40.6063 29.1647 40.7729 29.1243 40.9125 29.0332C41.0519 28.9421 41.1559 28.8058 41.2069 28.6471L42.4794 23.8691Z" fill="black"/>
<path d="M42.3741 23.3922L42.6241 23.6821L41.9393 23.7464L42.3741 23.3922Z" fill="black"/>
<path d="M43.5046 26.5437C43.2125 26.0672 42.9409 25.4661 42.1518 25.3439L42.051 26.3406L43.5046 26.5437Z" fill="#FFC619"/>
<path d="M42.7085 24.1382C42.7301 24.0656 42.7354 23.9892 42.7242 23.9143C42.713 23.8395 42.6856 23.7679 42.6439 23.7047C42.6022 23.6416 42.5472 23.5884 42.4827 23.5487C42.4183 23.5091 42.3457 23.484 42.2706 23.4753L39.9656 23.1501C39.8005 23.1367 39.6354 23.1788 39.4968 23.2693C39.3581 23.36 39.2532 23.494 39.1991 23.6506L37.9267 28.4286C37.9051 28.5011 37.8997 28.5775 37.9109 28.6524C37.9222 28.7273 37.9496 28.7988 37.9913 28.862C38.033 28.9252 38.088 28.9785 38.1524 29.018C38.2171 29.0577 38.2894 29.0828 38.3646 29.0915L40.6695 29.3958C40.8311 29.4219 40.9966 29.3871 41.1342 29.2987C41.2717 29.2101 41.372 29.074 41.4153 28.9162L42.7085 24.1382Z" fill="white"/>
<path d="M42.0085 26.0295L42.9429 26.1719C43.1323 26.1923 43.3059 26.2862 43.4267 26.4332C43.5476 26.5805 43.6057 26.7692 43.5888 26.9587C43.5843 27.0573 43.5593 27.1539 43.5153 27.2423C43.4712 27.3304 43.4092 27.4087 43.3332 27.4714C43.257 27.5343 43.1687 27.5804 43.0735 27.6069C42.9785 27.6335 42.8789 27.6398 42.7813 27.6254L42.096 27.5237C41.8832 27.4938 41.6861 27.3944 41.5353 27.241C41.3848 27.0875 41.2891 26.8887 41.2632 26.6752C41.2577 26.5801 41.2742 26.485 41.3113 26.3973C41.3484 26.3096 41.4052 26.2316 41.4771 26.1691C41.5491 26.1068 41.6345 26.0617 41.7266 26.0376C41.8187 26.0134 41.9152 26.0106 42.0085 26.0295Z" fill="#FFC619"/>
<path d="M41.7014 27.4208L42.3451 27.5227C42.4529 27.536 42.5564 27.5725 42.6485 27.6297C42.7406 27.6869 42.8191 27.7637 42.8786 27.8542C42.9382 27.9449 42.9773 28.0476 42.9932 28.1548C43.0091 28.2621 43.0013 28.3715 42.9707 28.4756C42.927 28.643 42.8216 28.7878 42.6755 28.8806C42.5295 28.9734 42.3538 29.0076 42.1835 28.9761L41.7889 28.9151C41.5736 28.886 41.3736 28.7874 41.2195 28.6343C41.0655 28.4812 40.9657 28.2818 40.9353 28.0666C40.929 27.9693 40.9457 27.8721 40.9839 27.7823C41.0222 27.6927 41.0809 27.6133 41.1554 27.5504C41.23 27.4877 41.3181 27.4432 41.413 27.4207C41.5078 27.3982 41.6066 27.3983 41.7014 27.4208Z" fill="#FFC619"/>
<path d="M39.6951 29.793L37.4525 29.4885L37.5535 28.5749L39.7962 28.9002L39.6951 29.793Z" fill="#FFC619"/>
<path d="M40.2237 26.1589L38.8116 25.9556C38.7444 25.9467 38.6812 25.9185 38.6294 25.8746C38.5777 25.8306 38.5398 25.7726 38.5203 25.7074L38.3946 25.3342L38.2885 24.5665L37.5287 27.2672L39.8129 27.5924C40.0256 27.6202 40.2413 27.5755 40.4255 27.4658C40.6097 27.3561 40.7516 27.1877 40.8282 26.9874C40.8526 26.8924 40.8556 26.7932 40.8373 26.697C40.8187 26.6007 40.7792 26.5097 40.7215 26.4306C40.6637 26.3513 40.589 26.2859 40.5031 26.239C40.4171 26.192 40.3217 26.1647 40.2237 26.1589Z" fill="#FFC619"/>
<path d="M39.7713 27.5721L37.5287 27.2676L37.637 28.7617L39.3606 29.0056C39.5709 29.0363 39.7852 28.9925 39.9667 28.8821C40.1482 28.7718 40.2855 28.6014 40.3551 28.4006C40.3832 28.3071 40.3898 28.2085 40.3743 28.1121C40.3587 28.0156 40.3212 27.9242 40.2651 27.8442C40.2089 27.7645 40.1352 27.6985 40.0495 27.6512C39.9641 27.6041 39.8689 27.577 39.7713 27.5721Z" fill="#FFC619"/>
<path d="M55.6988 36.6777C55.7542 34.4358 53.9058 34.0885 52.6373 33.3036C51.3687 32.5187 49.8692 30.8627 48.3091 29.7466C46.7489 28.6304 45.3998 28.6553 42.7662 29.4728L45.7936 35.317C47.4983 36.1836 47.8748 37.1373 48.792 38.4215C49.7092 39.7056 50.9354 40.2001 52.1593 39.968C52.806 41.0247 52.9313 41.2734 53.8643 40.9384C54.7974 40.6035 56.3312 39.8931 56.7426 38.6672C57.1541 37.4413 56.5515 37.2355 55.6988 36.6777Z" fill="#66BCFF"/>
<path d="M45.6586 31.8714C45.3823 32.7633 45.2043 33.6826 45.1272 34.6129" stroke="black" stroke-width="2" stroke-miterlimit="10" stroke-linecap="round"/>
<path d="M46.916 42.6614C45.0323 44.3692 43.4326 43.8966 42.6851 43.8159C41.9376 43.7351 42.019 43.1952 41.9553 42.7387C41.8917 42.2823 41.8481 41.5974 41.8481 41.5974C39.9588 41.4786 39.7266 40.1924 39.6816 39.0509C39.6367 37.9094 39.3456 37.7442 39.1978 36.9352C36.9191 36.533 34.7639 35.6117 32.8987 34.2422C31.0334 32.8729 29.5089 31.0922 28.4426 29.0387L30.4101 27.6005L34.8192 30.4515C37.7841 29.3424 39.4222 28.777 41.0201 28.6684C42.6181 28.5598 44.1974 29.1569 44.723 31.3763C45.2487 33.5957 45.313 34.2805 45.7936 35.3376C45.919 35.6071 46.1277 35.9801 46.3365 36.3738C46.9212 37.5552 47.5282 39.2139 46.3506 41.0233C46.4965 41.5831 46.6856 42.1309 46.916 42.6614Z" fill="#8CD9FF"/>
<path d="M31.6726 33.2214C31.6059 31.7479 32.1632 30.7083 33.1798 30.5392L30.6005 28.7619L28.7349 29.5771C29.2163 30.9041 30.4454 32.3533 31.6726 33.2214Z" fill="black"/>
<path d="M35.882 24.9892C35.2785 24.4721 34.822 24.515 34.0964 24.8286C33.3263 24.1252 32.3297 24.0244 31.2929 24.3804C30.2562 24.7364 28.6593 25.2187 27.726 25.4706C27.674 25.4902 27.6173 25.4944 27.5629 25.4827C27.5085 25.4708 27.4586 25.4438 27.4191 25.4047C27.3797 25.3653 27.3524 25.3156 27.3404 25.2613C27.3282 25.2069 27.3321 25.1502 27.3513 25.0981L28.0287 22.6052C25.8128 24.2725 25.0971 27.8241 25.8086 29.7523C26.5202 31.6805 29.5921 31.6505 30.5661 31.1078C31.54 30.5652 31.8716 30.3981 32.9931 30.6023C34.1146 30.8065 34.9868 30.9491 36.4571 29.8238L37.328 29.5306C37.6544 27.6407 37.3597 26.2716 35.882 24.9892Z" fill="#3442D9"/>
<path d="M35.8821 24.9891C35.2786 24.472 34.8221 24.5149 34.0966 24.8285C33.3264 24.1251 32.3298 24.0243 31.293 24.3803C30.2563 24.7363 28.6595 25.2186 27.7262 25.4705" stroke="black" stroke-miterlimit="10" stroke-linecap="round"/>
<path d="M34.0964 24.8286C34.7179 25.3068 35.2359 25.906 35.6197 26.5896C36.0035 27.2734 36.2449 28.0278 36.3295 28.8072" stroke="black" stroke-miterlimit="10" stroke-linecap="round"/>
<path d="M40.3839 24.1866C40.3932 24.158 40.3962 24.1276 40.3926 24.0976C40.389 24.0677 40.3789 24.0389 40.3629 24.0134C40.347 23.9877 40.3258 23.9657 40.3006 23.9492C40.2754 23.9327 40.247 23.9218 40.2171 23.9173L40.0095 23.9179C39.9518 23.9054 39.8914 23.916 39.8412 23.9471C39.7909 23.9782 39.7547 24.0275 39.7402 24.0848L39.5554 24.7703C39.546 24.8007 39.5436 24.8326 39.5485 24.864C39.5533 24.8953 39.5652 24.9249 39.5832 24.951C39.6013 24.9769 39.6252 24.9984 39.6529 25.0139C39.6805 25.0292 39.7115 25.038 39.7431 25.0396L39.9506 25.039C40.0052 25.0459 40.0604 25.0326 40.1062 25.002C40.1518 24.9713 40.1848 24.9253 40.1992 24.8722L40.3839 24.1866Z" fill="#29CC7A"/>
<path d="M37.0507 20.2115C37.2101 19.8861 37.4461 19.6044 37.7381 19.3903C38.0304 19.1761 38.3701 19.0359 38.7282 18.9817C38.7698 18.9816 38.7904 18.94 38.7696 18.9194C38.4967 17.9238 38.6196 17.363 38.9702 16.6355C38.9737 16.6302 38.976 16.6242 38.9768 16.6179C38.9776 16.6116 38.977 16.6052 38.9751 16.5993C38.973 16.5932 38.9697 16.5878 38.9651 16.5833C38.9607 16.5788 38.9553 16.5754 38.9493 16.5733C37.7854 16.0786 37.347 15.2497 37.2206 14.6274C37.1997 14.5859 37.1373 14.5654 37.1167 14.6069C36.6009 15.6463 35.8953 15.69 35.2931 15.6088C35.2516 15.6089 35.231 15.6505 35.2518 15.6712C35.8573 16.8317 35.4239 17.6633 34.8237 18.2463C34.8206 18.2545 34.819 18.2632 34.8195 18.272C34.8199 18.2807 34.8222 18.2893 34.8262 18.2971C34.8301 18.305 34.8356 18.3119 34.8424 18.3174C34.8491 18.3229 34.857 18.327 34.8655 18.3292C36.0285 18.5333 36.6535 19.2994 36.9468 20.191C36.9677 20.2325 37.03 20.253 37.0507 20.2115Z" fill="#FFC619"/>
<path d="M39.7714 27.5721L38.5878 27.4097" stroke="black" stroke-miterlimit="10" stroke-linecap="round"/>
<path d="M41.9299 27.5034L42.5945 27.6052" stroke="black" stroke-miterlimit="10" stroke-linecap="round"/>
<path d="M37.1789 14.5862C37.6943 13.4223 37.6503 12.6129 37.5036 12.1567" stroke="black" stroke-miterlimit="10" stroke-linecap="round"/>
<path d="M38.8456 16.6151C39.1695 16.6638 39.5003 16.6421 39.8151 16.5516C40.1302 16.4611 40.4219 16.3039 40.6706 16.0907" stroke="black" stroke-miterlimit="10" stroke-linecap="round"/>
<path d="M37.0507 20.2117C37.0528 20.3661 37.0323 20.5202 36.9898 20.6686" stroke="black" stroke-miterlimit="10" stroke-linecap="round"/>
<path d="M34.9276 18.2671C34.1613 18.8091 32.9986 18.7296 32.1884 18.483" stroke="black" stroke-miterlimit="10" stroke-linecap="round"/>
<path d="M35.2931 15.6089C35.0007 15.0078 34.4589 14.3245 33.9601 14.0977" stroke="black" stroke-miterlimit="10" stroke-linecap="round"/>
<path d="M38.7697 18.9194C39.0378 19.0615 39.3246 19.1655 39.6216 19.2282" stroke="black" stroke-miterlimit="10" stroke-linecap="round"/>
<path d="M36.5419 16.7052C36.8989 18.0741 37.3553 17.9897 37.5616 17.5739C37.7679 17.1581 37.9117 16.6388 38.2439 16.6793C38.5761 16.7198 38.4949 17.3012 38.103 18.1327C37.7111 18.9642 37.0682 19.1529 36.4641 18.4283C35.86 17.7036 35.8371 16.9979 35.8148 16.4998C35.7925 16.0017 36.3111 15.8756 36.5419 16.7052Z" fill="#C40655"/>
<path d="M35.7247 21.0252C35.9825 23.8889 34.5337 25.2632 34.0857 28.1083" stroke="white" stroke-miterlimit="10" stroke-linecap="round"/>
<path d="M39.0318 36.9564C38.6545 35.7329 38.4817 33.4917 39.4928 31.5167" stroke="black" stroke-width="2" stroke-miterlimit="10" stroke-linecap="round"/>
<path d="M28.5349 25.24L27.0004 25.7428" stroke="black" stroke-miterlimit="10" stroke-linecap="round"/>
<path d="M43.7905 25.0068L44.8292 25.2943" stroke="black" stroke-miterlimit="10" stroke-linecap="round"/>
</g>
<g clip-path="url(#clip4_104_1083)">
<rect x="0.00439453" y="1.78711" width="29.1892" height="29.1892" rx="14.5946" transform="rotate(-0.173721 0.00439453 1.78711)" fill="url(#paint0_linear_104_1083)"/>
<path d="M26.5187 13.372C28.0294 7.5544 28.7608 6.5212 32.2967 14.0094L26.5187 13.372Z" fill="#D4E1FF"/>
<path d="M12.0857 25.8352L11.947 25.9554C14.0568 27.933 17.2689 33.0211 22.1305 32.7493C22.1305 32.7493 26.0825 39.9188 30.3085 39.1129C34.5344 38.3061 37.6519 32.3446 37.6519 32.3446C38.7907 30.2869 39.5947 28.061 40.0338 25.7505C39.9727 25.2155 39.7729 24.799 39.3953 24.5422C36.3718 22.5481 14.2842 24.2222 12.0857 25.8352Z" fill="#1C1B29"/>
<path d="M18.4528 11.0954L22.8825 12.2721C24.1978 11.705 25.6165 11.4173 27.0488 11.4269C33.7972 11.4065 37.4066 16.8711 37.427 23.5961C37.4473 30.322 33.8712 35.8084 27.1228 35.8289C20.3737 35.8493 16.7844 30.3846 16.764 23.6588C16.757 22.6684 16.8335 21.6792 16.9929 20.7017C17.4423 18.1209 17.3129 15.4711 16.6118 12.946C16.5436 12.6907 16.5435 12.422 16.6117 12.1667C16.6798 11.9115 16.8137 11.6785 17.0001 11.4912C17.1864 11.3039 17.4187 11.1688 17.6736 11.0993C17.9285 11.0298 18.1972 11.0285 18.4528 11.0954Z" fill="#B3CAFF"/>
<path d="M37.1978 26.5135C33.9269 27.9714 30.5481 26.4533 27.2872 24.5989C23.7276 22.5662 21.429 17.3949 20.4516 15.7513C19.4743 14.107 18.0832 13.7946 17.1237 11.3972C16.897 11.5776 16.728 11.8201 16.6372 12.0952C16.5463 12.3702 16.5378 12.6658 16.6125 12.9456C17.3131 15.4709 17.443 18.1205 16.9928 20.7022C16.8335 21.6794 16.7569 22.6683 16.7639 23.6584C16.7843 30.3843 20.3936 35.8489 27.1227 35.8285C32.8594 35.8111 36.3011 31.8326 37.1978 26.5127L37.1978 26.5135Z" fill="#8DAEF7"/>
<path d="M36.5964 24.5106C36.6122 29.7482 33.5089 34.0037 29.6775 34.0153C25.8469 34.0269 22.737 29.7903 22.7212 24.5526C22.6949 15.903 28.0955 22.9694 31.9269 22.9577C35.7575 22.9461 36.6727 17.0909 36.5964 24.5106Z" fill="#FCFDFF"/>
<path d="M29.779 29.5817C30.151 29.5492 30.4081 29.0277 30.3557 28.4163C30.3024 27.805 29.9578 27.3359 29.5867 27.3676C29.2155 27.4009 28.9575 27.9224 29.0108 28.5329C29.0641 29.1443 29.4079 29.6141 29.779 29.5817ZM34.3362 28.5545C34.4452 27.9507 34.2363 27.4073 33.8688 27.3418C33.5022 27.2754 33.1162 27.7113 33.0071 28.3151C32.8989 28.9181 33.1079 29.4615 33.4745 29.5279C33.8411 29.5943 34.2271 29.1584 34.3362 28.5545Z" fill="#1C1B29"/>
<path d="M49.855 89.5832C47.0378 90.1872 38.5776 82.1779 38.5776 82.1779C40.9221 89.4713 41.3257 91.6525 41.7283 93.5357C42.131 95.4197 41.8935 95.7973 41.7392 97.1269C41.5841 98.4564 41.584 98.4171 42.383 100.081C43.182 101.745 43.7022 102.914 43.8631 103.767C43.9241 104.262 43.9055 104.765 43.8081 105.254L8.33706 105.362C8.33706 105.362 8.15546 104.569 8.90333 102.364C9.65121 100.16 11.3725 98.3303 12.3206 96.938C13.2694 95.5466 13.2103 95.6858 12.9506 95.1112C11.7512 92.2975 13.6784 92.9072 14.4796 88.6787C15.28 84.4503 15.4777 64.2928 17.2583 56.0548C19.0398 47.816 21.7933 45.863 21.9712 39.0578C18.6068 35.934 10.2651 27.8046 11.947 25.9545C13.8577 27.7343 19.5769 28.5904 24.2415 28.5369C24.6507 28.5298 25.0517 28.6519 25.3874 28.8859C25.7231 29.1199 25.9765 29.4539 26.1114 29.8403C26.9126 32.2381 28.9319 36.9739 32.0864 36.3488C35.241 35.7245 37.5655 30.0828 38.215 28.0373C38.3519 27.5908 38.6377 27.2048 39.0249 26.9436C39.4473 26.6279 39.7923 26.2201 40.0338 25.7513C40.4828 29.6577 34.0229 40.0329 34.0229 40.0329C34.0229 40.0329 35.6735 54.0744 38.9034 58.6868C42.1325 63.3 51.1646 63.2726 51.3957 67.6763C51.6276 72.0792 52.652 88.9793 49.855 89.5832Z" fill="#BD4070"/>
<path d="M22.4008 30.2082C20.058 30.0763 16.9012 29.6889 11.8319 27.1851C12.6541 30.1381 19.1249 36.388 21.9713 39.0577C21.9348 41.1684 21.5591 43.2596 20.8586 45.251C23.4298 48.8737 26.5196 46.5035 27.1065 56.6991C27.3576 61.0432 30.5709 66.8064 33.9246 73.0456C37.2784 79.2848 37.7 67.7965 37.5438 62.143C37.4549 59.068 36.8287 55.2609 36.1619 51.6324C34.7366 46.1411 34.023 40.0328 34.023 40.0328C34.023 40.0328 38.5468 32.758 39.763 28.1121C39.4534 28.3059 39.2116 28.5911 39.0711 28.9274C37.8481 31.7072 36.4782 34.42 34.967 37.0543C33.4065 39.698 30.4927 41.0159 27.122 35.8286C23.7522 30.6405 24.9221 30.3597 22.4008 30.2082Z" fill="#A12C66"/>
<path d="M23.8403 20.483C27.3393 22.1583 28.5568 24.2977 31.3554 24.2097C34.154 24.1216 35.2411 22.7691 36.3671 20.9609C35.9076 19.9699 34.6663 22.9493 31.9269 22.9576C29.1876 22.9659 25.6038 19.3068 23.8403 20.483Z" fill="#8DAEF7"/>
</g>
<defs>
<linearGradient id="paint0_linear_104_1083" x1="14.599" y1="31.1087" x2="14.599" y2="10.2004" gradientUnits="userSpaceOnUse">
<stop stop-color="#7196FF"/>
<stop offset="1" stop-color="#2A5EE8"/>
</linearGradient>
<clipPath id="clip0_104_1083">
<rect x="78.8104" y="0.0888672" width="29.1892" height="29.1892" rx="14.5946" transform="rotate(-0.173721 78.8104 0.0888672)" fill="white"/>
</clipPath>
<clipPath id="clip1_104_1083">
<rect x="63.2429" y="0.135742" width="29.1892" height="29.1892" rx="14.5946" transform="rotate(-0.173721 63.2429 0.135742)" fill="white"/>
</clipPath>
<clipPath id="clip2_104_1083">
<rect x="41.8406" y="1.17383" width="29.1892" height="29.1892" rx="14.5946" transform="rotate(-0.173721 41.8406 1.17383)" fill="white"/>
</clipPath>
<clipPath id="clip3_104_1083">
<rect x="20.9232" y="1.72363" width="29.1892" height="29.1892" rx="14.5946" transform="rotate(-0.173721 20.9232 1.72363)" fill="white"/>
</clipPath>
<clipPath id="clip4_104_1083">
<rect x="0.00439453" y="1.78711" width="29.1892" height="29.1892" rx="14.5946" transform="rotate(-0.173721 0.00439453 1.78711)" fill="white"/>
</clipPath>
</defs>
</svg>
